# xmcd
#
# Track frame offsets: 
#        150
#        20830
#        43846
#        63906
#        89908
#        113025
#        139140
#        161264
#        181122
#        207348
#        226668
#        244233
#        264856
#
# Disc length: 3830 seconds
#
# Revision: 1
# Processed by: cddbd v1.5.2PL0 Copyright (c) Steve Scherf et al.
# Submitted via: ExactAudioCopyFreeDBPlugin 1.0
#
DISCID=ae0ef40d
DTITLE=群星 - DTSES紫银水晶试音王1
DYEAR=2014
DGENRE=DTS ES
TTITLE0=黄绮珊 - 大海
TTITLE1=古筝 - 一水隔天涯
TTITLE2=常安 - 十八弯水路到我家
TTITLE3=杨曼莉 - 套马杆
TTITLE4=乔维怡 - 传奇
TTITLE5=叶子 - 吻和泪
TTITLE6=腾格尔 - 成吉思汗的传说
TTITLE7=龚玥 - 美丽的草原我的家
TTITLE8=童彤 - 天路
TTITLE9=纯音乐 - 蓝色的蒙古草原
TTITLE10=龙飘飘 - 美酒加咖啡
TTITLE11=白玛多吉 - 姑娘我爱你
TTITLE12=龚玥 - 风雨兼程
EXTD=
EXTT0=
EXTT1=
EXTT2=
EXTT3=
EXTT4=
EXTT5=
EXTT6=
EXTT7=
EXTT8=
EXTT9=
EXTT10=
EXTT11=
EXTT12=
PLAYORDER=
